REM MD5 34bd976fb93212d508706c090f36f18e
FILE "Interactive CD Sampler Disc Volume 4 (USA).bin" BINARY
  TRACK 01 MODE2/2352
    INDEX 01 00:00:00
  TRACK 02 AUDIO
    INDEX 00 60:29:08
    INDEX 01 60:31:08
  TRACK 03 AUDIO
    INDEX 00 63:00:63
    INDEX 01 63:02:63
REM LEADOUT 65:25:43
